Coordinates
version=1
nRows=17
nColumns=36
inDegrees=yes

Units are S.I. units (second, meters, Newtons, ...)
If the header above contains a line with 'inDegrees', this indicates whether rotational values are in degrees (yes) or radians (no).

endheader
time	pelvis_tilt	pelvis_list	pelvis_rotation	pelvis_tx	pelvis_ty	pelvis_tz	hip_flexion_r	hip_adduction_r	hip_rotation_r	knee_angle_r	knee_angle_r_beta	ankle_angle_r	subtalar_angle_r	mtp_angle_r	hip_flexion_l	hip_adduction_l	hip_rotation_l	knee_angle_l	knee_angle_l_beta	ankle_angle_l	subtalar_angle_l	mtp_angle_l	lumbar_extension	lumbar_bending	lumbar_rotation	arm_flex_r	arm_add_r	arm_rot_r	elbow_flex_r	pro_sup_r	arm_flex_l	arm_add_l	arm_rot_l	elbow_flex_l	pro_sup_l
      2.95000000	    -20.31068674	      0.97538495	      0.33648254	      0.61899941	      0.54069736	      0.04004475	     97.17885324	    -10.29523167	      4.42520858	    106.29026835	      1.85511515	     35.08523619	      1.72677200	     -7.49999987	     96.65368517	    -15.92502893	      4.77703713	    105.40491754	      1.83966286	     32.64772663	      3.63434696	     -7.49999987	    -43.56511154	     -2.25915473	      0.14717227	     83.79482467	      9.36918383	     70.53142958	    124.24314051	     92.81043972	     99.21692357	     13.22743634	     76.08170403	    123.35350313	     77.76036854
      2.96666670	    -20.91596968	      1.34614063	      0.05297542	      0.61512545	      0.53896354	      0.03721919	     98.07734651	    -10.20016096	      4.80498160	    105.81195906	      1.84676707	     34.27886418	      1.69172690	     -7.49999987	     97.41083823	    -15.93031138	      4.25287802	    105.34905311	      1.83868784	     31.88939479	      2.59489078	     -7.49999987	    -43.41941696	     -2.43631702	      0.03271865	     84.91264066	      9.24752238	     70.19004801	    124.54228536	     92.32492570	     99.71125063	     13.19113330	     75.42162154	    123.64712710	     77.54045796
      2.98333330	    -21.29432369	      1.59876788	     -0.22447476	      0.61639767	      0.53838537	      0.03768931	     98.62132815	    -10.10793908	      5.04199043	    105.53096574	      1.84186281	     33.83574754	      2.00256285	     -7.49999987	     97.66569925	    -16.05347613	      3.87083730	    105.19022436	      1.83591576	     31.80567190	      2.21190785	     -7.49999987	    -43.19203706	     -2.52296975	      0.14247022	     85.58260100	      8.94335902	     69.99872843	    124.85349741	     91.36481145	     99.66378138	     13.07693848	     75.13715588	    123.93164041	     76.82419632
      3.00000000	    -21.43778984	      1.75103921	     -0.42083047	      0.61141269	      0.53757711	      0.04108637	     98.87955702	     -9.99669041	      5.08637996	    105.26260600	      1.83717905	     33.37811968	      2.34452968	     -7.49999987	     97.86672713	    -16.22896280	      3.69204104	    105.02271302	      1.83299213	     31.50217299	      2.02451762	     -7.49999987	    -43.08426546	     -2.69510174	      0.41893682	     85.87732246	      9.06990298	     69.59586721	    124.91209706	     91.37980885	     99.93939648	     13.09499086	     74.84286748	    124.00556117	     76.93532646
      3.01666670	    -21.50810871	      1.80162370	     -0.48993835	      0.61711617	      0.53875554	      0.03807020	     98.62114350	    -10.04357482	      5.17502617	    104.97857432	      1.83222177	     33.48633258	      2.54909524	     -7.49999987	     97.67148992	    -16.29607266	      3.56705857	    104.81609154	      1.82938591	     31.47874937	      1.98026354	     -7.49999987	    -42.75658302	     -2.60100269	      0.61892362	     85.18725220	      9.06219420	     69.54858833	    125.03037274	     91.40618449	     99.77841273	     13.27909795	     74.75563239	    124.08034641	     77.01780065
      3.03333330	    -21.83867710	      1.78008743	     -0.54186424	      0.62208793	      0.53989682	      0.04141699	     98.34978043	    -10.00673418	      5.10154904	    104.81195205	      1.82931366	     33.99335850	      3.05164600	     -7.49999987	     97.71544964	    -16.40134287	      3.58062611	    104.68784497	      1.82714758	     31.69743246	      2.34057403	     -7.49999987	    -41.74711845	     -2.74274855	      1.00273678	     83.83849299	      8.81193311	     69.23271173	    125.18750958	     91.53675798	     98.47450076	     13.41413759	     75.13161403	    123.94215819	     77.40882196
      3.05000000	    -21.94148360	      1.69495604	     -0.67912191	      0.61624304	      0.54159723	      0.04357702	     98.16115497	     -9.71559497	      4.92854405	    104.50076446	      1.82388241	     33.97612979	      2.91279254	     -7.49999987	     97.40430118	    -16.36530502	      3.79035864	    104.12028799	      1.81724184	     31.88880064	      2.55644543	     -7.49999987	    -40.99171897	     -3.01616767	      0.87348652	     84.45114284	      8.77650794	     69.15807151	    125.14830520	     91.55807479	     98.60307682	     13.25913103	     75.06296603	    123.77883310	     77.47337458
      3.06666670	    -21.59962498	      1.48685047	     -0.52403401	      0.63664873	      0.55045910	      0.04468863	     96.58838410	     -9.46284838	      4.72447500	    104.52112512	      1.82423777	     34.92555039	      2.21982250	     -7.49999987	     95.96285111	    -16.60917128	      3.96683099	    103.74260649	      1.81065006	     31.82497561	      2.59060916	     -7.49999987	    -40.47287743	     -3.23266302	      0.75289209	     83.16128529	      9.29589306	     70.30084485	    125.32985240	     91.52704016	     97.04247308	     13.77637418	     75.75356091	    124.17741106	     77.54848301
      3.08333330	    -21.82236389	      1.42091276	     -0.37086460	      0.62994913	      0.55761855	      0.04657840	     95.50533029	     -9.06837433	      4.57041987	    103.52136696	      1.80678870	     34.40051779	      1.05608697	     -7.49999987	     94.99503087	    -16.67148208	      3.61995261	    102.63086889	      1.79124658	     31.91265059	      3.15680993	     -7.49999987	    -39.36871472	     -3.39218488	      0.45897895	     82.34255240	      9.87314386	     71.66356508	    125.05838154	     94.80903273	     95.76256914	     13.40152510	     75.67727497	    124.80121636	     83.21635728
      3.10000000	    -21.47481070	      1.55166548	     -0.16638842	      0.63416273	      0.57159283	      0.03739715	     93.57627009	     -9.05371245	      4.82691817	    102.04710468	      1.78105797	     34.46402355	      0.27578509	     -7.49999987	     92.95551117	    -16.19609942	      2.67673584	    100.99753169	      1.76273946	     31.47094519	      2.60653966	     -7.49999987	    -39.01779121	     -3.40410293	      0.39504900	     81.14510423	      9.31844433	     72.73698011	    124.87495575	     93.23164608	     94.82820509	     13.67657482	     76.71853496	    124.50192863	     82.25271424
      3.11666670	    -20.90062407	      1.49911756	     -0.24121629	      0.63256140	      0.58684027	      0.03637482	     90.96876637	     -8.73025979	      4.83878507	     99.68357685	      1.73980663	     33.93912048	     -0.80986277	     -7.49999987	     90.33048699	    -15.80299608	      1.93984105	     98.66754586	      1.72207354	     31.06217714	      2.00642675	     -7.49999987	    -38.99827823	     -3.73949958	     -0.11418362	     80.32263256	      9.01130729	     73.41939617	    124.91926914	     93.29577265	     94.84601912	     13.86698227	     77.57567495	    123.54782880	     81.72183171
      3.13333330	    -20.28560230	      1.53062612	     -0.25325261	      0.62692465	      0.59209171	      0.02613382	     89.12038854	     -8.89217362	      5.15901180	     97.65041843	      1.70432132	     33.18725751	     -1.87511399	     -7.49999987	     88.45548679	    -14.67656493	      1.34797851	     97.11975114	      1.69505943	     30.50202095	      0.36942594	     -7.49999987	    -38.99744430	     -3.37713493	     -0.70223625	     80.90012760	      9.16163565	     73.94202044	    125.08528515	     93.49988023	     94.95091661	     14.07915405	     76.92717466	    122.83379600	     81.72740558
      3.15000000	    -19.60819753	      1.49186422	     -0.37318468	      0.62661894	      0.60156309	      0.02630254	     87.31393228	     -8.89567359	      5.31632404	     95.71957037	      1.67062166	     32.53678403	     -1.94942052	     -7.49999987	     86.54111117	    -13.84107684	      1.05274349	     95.37705353	      1.66464362	     30.26355760	     -0.60462569	     -7.49999987	    -38.54493165	     -3.19133700	     -0.60683611	     80.78674975	      8.73227325	     74.22057861	    124.88268155	     93.56847985	     94.76522358	     14.01253625	     76.84814417	    122.13067499	     81.70823328
      3.16666670	    -18.81654616	      1.76960520	     -0.38840863	      0.62682810	      0.62109600	      0.02573284	     84.77612901	     -8.83543556	      5.60158107	     93.12311622	      1.62530499	     31.67905153	     -2.85334100	     -7.49999987	     83.86717149	    -12.82543579	      0.39457288	     92.89738836	      1.62136529	     29.05189287	     -2.51116915	     -7.49999987	    -38.91385191	     -3.36446886	     -0.80067807	     81.50580467	      8.20339731	     73.58934342	    124.91016161	     92.39694092	     95.17947561	     14.41318226	     75.91879282	    121.57501059	     80.82007776
      3.18333330	    -17.99808499	      1.76227600	     -0.24879988	      0.63748096	      0.63583089	      0.03125724	     81.76242841	     -8.69638598	      5.33807754	     90.74876121	      1.58386468	     31.29350808	     -3.33395875	     -7.49999987	     80.73222062	    -12.31214898	      0.21918022	     90.18096079	      1.57395469	     28.48009481	     -2.85390115	     -7.49999987	    -38.40020233	     -3.47420911	     -0.31363593	     79.65847344	      8.15162743	     73.87898235	    124.84969219	     92.51842125	     93.24324879	     14.18482086	     76.57496657	    121.75732155	     80.84654554
      3.20000000	    -17.09339624	      1.67388964	     -0.02206957	      0.65219493	      0.64375293	      0.03427331	     78.57972862	     -8.48267720	      5.06360697	     89.05672830	      1.55433313	     31.30813315	     -4.33334600	     -7.49999987	     77.36870285	    -12.06924398	      0.21436726	     88.03351864	      1.53647475	     28.47397944	     -3.12693717	     -7.49999987	    -37.34083695	     -3.72170729	      0.11968798	     77.39569251	      8.48905557	     74.39458752	    124.86195053	     92.69291045	     90.79022007	     14.04542231	     76.98698340	    122.46442166	     80.89550006
      3.21666670	    -16.26955931	      1.59133707	      0.26657004	      0.65115068	      0.65634039	      0.03351372	     75.66797796	     -8.27419601	      4.83620841	     87.17639397	      1.52151510	     31.12147190	     -5.05739652	     -7.49999987	     74.40202557	    -11.81790235	     -0.00204676	     85.81554802	      1.49776386	     28.17391100	     -3.23354540	     -7.49999987	    -36.40532023	     -3.76598214	      0.72314153	     75.34086905	      8.68761318	     74.00464522	    124.76278601	     92.86139947	     88.42809463	     13.98158017	     77.09274704	    123.16326268	     80.95062678
